<?xml version="1.0" encoding="iso-8859-1"?>
<!-- Generator: Adobe Illustrator 16.0.0, SVG Export Plug-In . SVG Version: 6.00 Build 0)  -->
<!DOCTYPE svg PUBLIC "-//W3C//DTD SVG 1.1//EN" "http://www.w3.org/Graphics/SVG/1.1/DTD/svg11.dtd">
<svg version="1.1" id="Layer_1" xmlns="http://www.w3.org/2000/svg" xmlns:xlink="http://www.w3.org/1999/xlink" x="0px" y="0px"
	 width="43px" height="90px" viewBox="6.5 0 43 90" style="enable-background:new 6.5 0 43 90;" xml:space="preserve">
<circle style="fill:#E0E2E2;" cx="28.108" cy="21.751" r="20.392"/>
<circle style="fill:#BA1D1D;" cx="28.191" cy="67.69" r="20.309"/>
<g id="envelope">
	<g>
		<path style="fill:#FFFFFF;" d="M28.042,71l-10.459-9.5h20.886L28.042,71z M28.026,72.875l-4.351-4.062L17.583,74.5h20.886
			l-6.092-5.688L28.026,72.875z M33.247,68l5.222,4.875v-9.75L33.247,68z M17.583,63.125v9.75L22.805,68L17.583,63.125z"/>
	</g>
</g>
<g id="envelope_1_">
	<g>
		<path style="fill:#FFFFFF;" d="M28.084,25l-10.417-9.5h20.802L28.084,25z M28.067,26.875l-4.333-4.062L17.667,28.5h20.802
			l-6.067-5.688L28.067,26.875z M33.269,22l5.2,4.875v-9.75L33.269,22z M17.667,17.125v9.75L22.867,22L17.667,17.125z"/>
	</g>
</g>
</svg>
