<?xml version="1.0" encoding="iso-8859-1"?>
<!-- Generator: Adobe Illustrator 16.0.0, SVG Export Plug-In . SVG Version: 6.00 Build 0)  -->
<!DOCTYPE svg PUBLIC "-//W3C//DTD SVG 1.1//EN" "http://www.w3.org/Graphics/SVG/1.1/DTD/svg11.dtd">
<svg version="1.1" id="Layer_1" xmlns="http://www.w3.org/2000/svg" xmlns:xlink="http://www.w3.org/1999/xlink" x="0px" y="0px"
	 width="56px" height="90px" viewBox="0 0 56 90" style="enable-background:new 0 0 56 90;" xml:space="preserve">
<circle style="fill:#E0E2E2;" cx="28.108" cy="21.751" r="20.392"/>
<circle style="fill:#3FC7F4;" cx="28.191" cy="68.69" r="20.309"/>
<path style="fill:#FFFFFF;" d="M40.193,62.996c-0.781,0.348-1.62,0.581-2.502,0.686c0.898-0.538,1.591-1.394,1.916-2.41
	c-0.843,0.501-1.774,0.862-2.767,1.058c-0.795-0.847-1.927-1.375-3.18-1.375c-2.406,0-4.356,1.949-4.356,4.355
	c0,0.341,0.039,0.674,0.113,0.992c-3.62-0.182-6.831-1.915-8.978-4.551c-0.375,0.645-0.59,1.392-0.59,2.189
	c0,1.512,0.769,2.845,1.938,3.626c-0.715-0.022-1.386-0.218-1.974-0.545c0,0.019,0,0.036,0,0.055c0,2.11,1.501,3.871,3.494,4.271
	c-0.366,0.1-0.75,0.152-1.148,0.152c-0.28,0-0.553-0.026-0.819-0.078c0.555,1.73,2.163,2.99,4.07,3.025
	c-1.491,1.169-3.369,1.866-5.41,1.866c-0.352,0-0.698-0.021-1.039-0.063c1.928,1.237,4.218,1.958,6.678,1.958
	c8.012,0,12.394-6.638,12.394-12.394c0-0.188-0.004-0.377-0.013-0.564C38.871,64.637,39.61,63.87,40.193,62.996z"/>
<path style="fill:#FFFFFF;" d="M40.036,15.783c-0.77,0.342-1.597,0.572-2.465,0.675c0.886-0.53,1.566-1.373,1.887-2.375
	c-0.829,0.493-1.747,0.85-2.725,1.042c-0.783-0.834-1.898-1.354-3.133-1.354c-2.37,0-4.291,1.92-4.291,4.291
	c0,0.336,0.038,0.664,0.111,0.978c-3.567-0.179-6.73-1.887-8.846-4.484c-0.37,0.635-0.582,1.371-0.582,2.157
	c0,1.49,0.758,2.803,1.91,3.572c-0.704-0.022-1.365-0.214-1.944-0.536c0,0.018,0,0.035,0,0.053c0,2.08,1.478,3.813,3.442,4.208
	c-0.361,0.099-0.739,0.15-1.131,0.15c-0.277,0-0.545-0.026-0.808-0.077c0.547,1.705,2.131,2.946,4.01,2.979
	c-1.469,1.152-3.319,1.839-5.331,1.839c-0.346,0-0.688-0.021-1.023-0.062c1.899,1.219,4.156,1.929,6.579,1.929
	c7.893,0,12.21-6.539,12.21-12.209c0-0.186-0.005-0.371-0.014-0.556C38.733,17.4,39.462,16.644,40.036,15.783z"/>
</svg>
